<?xml version="1.0" encoding="utf-8"?>
<!-- Generator: Adobe Illustrator 16.0.0, SVG Export Plug-In . SVG Version: 6.00 Build 0)  -->
<!DOCTYPE svg PUBLIC "-//W3C//DTD SVG 1.1//EN" "http://www.w3.org/Graphics/SVG/1.1/DTD/svg11.dtd">
<svg version="1.1"
	 id="svg2" xmlns:dc="http://purl.org/dc/elements/1.1/" xmlns:cc="http://web.resource.org/cc/" xmlns:rdf="http://www.w3.org/1999/02/22-rdf-syntax-ns#" xmlns:svg="http://www.w3.org/2000/svg" xmlns:sodipodi="http://sodipodi.sourceforge.net/DTD/sodipodi-0.dtd" xmlns:inkscape="http://www.inkscape.org/namespaces/inkscape" sodipodi:modified="true" inkscape:output_extension="org.inkscape.output.svg.inkscape" sodipodi:docname="border.svg" sodipodi:docbase="/home/nicu/Desktop/clipart" inkscape:version="0.45pre1" sodipodi:version="0.32"
	 xmlns="http://www.w3.org/2000/svg" xmlns:xlink="http://www.w3.org/1999/xlink" x="0px" y="0px" width="240px" height="240px"
	 viewBox="0 0 240 240" enable-background="new 0 0 240 240" xml:space="preserve">
<sodipodi:namedview  showgrid="false" inkscape:cy="120" inkscape:cx="120" inkscape:zoom="1" borderopacity="1.0" bordercolor="#666666" pagecolor="#ffffff" id="base" inkscape:window-y="24" inkscape:window-x="0" inkscape:window-height="791" inkscape:window-width="1152" inkscape:current-layer="layer1" inkscape:pageshadow="2" inkscape:pageopacity="0.0" inkscape:document-units="px">
	</sodipodi:namedview>
<g id="layer1" inkscape:label="Layer 1" inkscape:groupmode="layer">
	<linearGradient id="path6746_1_" gradientUnits="userSpaceOnUse" x1="3.6929" y1="120.7813" x2="238.9854" y2="120.7813">
		<stop  offset="0" style="stop-color:#3E3E3E"/>
		<stop  offset="1" style="stop-color:#000000"/>
	</linearGradient>
	<path id="path6746" fill="url(#path6746_1_)" fill-opacity="0.0941" d="M103.25,8.555c-0.604-0.063-1.224-0.052-1.847,0.037
		c-3.178,0.315-6.024,2.925-6.356,6.141c-0.288,2.57,1.554,5.494,4.313,5.569c1.835,0.25,3.652-1.476,3.31-3.328
		c-0.263-1.157-2.243-2.355-2.222-0.487c-1.071,2.276-3.175-0.016-2.634-1.716c0.48-2.849,4.066-4.323,6.581-3.15
		c3.589,1.267,5.002,5.712,3.938,9.141c-1.058,3.567-4.704,5.92-8.325,6.103c-2.334,0.219-4.61-0.475-6.788-1.219
		c-12.885-3.619-25.646-7.646-38.362-11.813c-5.663-1.754-11.315-3.578-17.091-4.922c-6.23-0.871-13.026,3.854-13.519,10.303
		c-0.557,4.681,2.67,9.628,7.359,10.594c2.982,0.577,6.369-0.582,7.978-3.253c1.523-2.196,1.331-5.456-0.685-7.285
		c-1.506-1.41-4.422-1.638-5.55,0.356c-1.151,1.083,0.089,3.756,1.237,3.356c0.297-1.599,2.623-3.003,3.094-0.712
		c0.854,2.429-1.51,4.674-3.788,4.95c-3.158,0.435-6.113-2.14-6.712-5.166c-0.764-3.068,0.368-6.555,2.981-8.4
		c3.235-2.657,7.881-2.45,11.606-1.041c8.513,2.602,17.006,5.307,25.481,8.035c8.332,2.683,16.709,5.225,25.144,7.565
		c3.632,1.164,7.739,2.224,11.4,0.581c4.719-1.633,8.13-6.576,7.584-11.606C111.065,12.95,107.482,8.997,103.25,8.555z
		 M139.682,8.695c-4.231,0.442-7.814,4.396-8.128,8.634c-0.546,5.03,2.865,9.973,7.584,11.606c3.661,1.643,7.769,0.583,11.4-0.581
		c8.435-2.341,16.812-4.882,25.144-7.565c8.475-2.728,16.969-5.433,25.481-8.035c3.725-1.409,8.37-1.617,11.606,1.041
		c2.613,1.845,3.745,5.323,2.98,8.391c-0.6,3.026-3.554,5.61-6.712,5.175c-2.277-0.276-4.642-2.521-3.788-4.95
		c0.471-2.291,2.797-0.887,3.094,0.712c1.148,0.4,2.389-2.272,1.238-3.356c-1.128-1.994-4.045-1.767-5.551-0.356
		c-2.016,1.829-2.197,5.089-0.675,7.285c1.608,2.671,4.987,3.83,7.969,3.253c4.688-0.965,7.917-5.913,7.359-10.594
		c-0.493-6.449-7.288-11.183-13.519-10.313c-5.775,1.344-11.428,3.177-17.091,4.931c-12.717,4.166-25.478,8.194-38.362,11.813
		c-2.178,0.744-4.453,1.438-6.787,1.219c-3.621-0.183-7.268-2.536-8.325-6.103c-1.064-3.428,0.349-7.874,3.938-9.141
		c2.515-1.173,6.101,0.301,6.581,3.15c0.541,1.7-1.563,3.992-2.635,1.716c0.021-1.868-1.959-0.669-2.222,0.487
		c-0.343,1.852,1.474,3.578,3.31,3.328c2.759-0.075,4.6-3.008,4.313-5.578c-0.332-3.215-3.178-5.816-6.356-6.131
		C140.905,8.643,140.286,8.632,139.682,8.695z M121.363,11.995c-3.952,0-7.182,3.229-7.182,7.181s3.229,7.181,7.182,7.181
		c3.951,0,7.172-3.229,7.172-7.181S125.314,11.995,121.363,11.995z M121.363,13.814c2.968,0,5.362,2.394,5.362,5.362
		s-2.395,5.363-5.362,5.363c-2.969,0-5.363-2.395-5.363-5.363S118.395,13.814,121.363,13.814z M14.835,23.442
		c-4.338,0.352-8.302,3.474-9.731,7.603c-1.643,3.661-0.582,7.768,0.582,11.4c2.34,8.434,4.882,16.812,7.565,25.144
		c2.728,8.475,5.433,16.968,8.034,25.481c1.41,3.725,1.617,8.371-1.041,11.606c-1.845,2.613-5.323,3.746-8.391,2.981
		c-3.026-0.6-5.609-3.554-5.175-6.712c0.276-2.277,2.521-4.641,4.95-3.788c2.292,0.471,0.887,2.787-0.712,3.084
		c-0.4,1.148,2.272,2.397,3.356,1.247c1.994-1.127,1.767-4.044,0.356-5.55c-1.829-2.016-5.088-2.208-7.284-0.685
		c-2.671,1.609-3.83,4.996-3.253,7.978c0.965,4.689,5.912,7.917,10.594,7.359c6.449-0.493,11.183-7.288,10.313-13.519
		c-1.344-5.776-3.177-11.428-4.932-17.091C15.9,67.266,11.873,54.505,8.253,41.62c-0.744-2.178-1.438-4.453-1.219-6.788
		c0.184-3.621,2.536-7.267,6.104-8.325c3.428-1.064,7.874,0.348,9.141,3.938c1.173,2.515-0.301,6.101-3.15,6.581
		c-1.699,0.54-3.992-1.563-1.715-2.634c1.868,0.02,0.669-1.959-0.488-2.222c-1.852-0.343-3.578,1.474-3.328,3.31
		c0.075,2.759,3.009,4.6,5.578,4.313c3.216-0.332,5.816-3.178,6.131-6.356c0.716-4.986-3.753-9.617-8.597-9.975
		C16.081,23.393,15.455,23.392,14.835,23.442z M228.098,23.573c-0.62-0.05-1.246-0.04-1.875,0.028
		c-4.844,0.358-9.313,4.988-8.598,9.975c0.315,3.178,2.916,6.015,6.132,6.347c2.569,0.287,5.503-1.554,5.578-4.313
		c0.249-1.835-1.476-3.652-3.328-3.31c-1.157,0.262-2.355,2.242-0.487,2.222c2.275,1.071-0.017,3.184-1.716,2.644
		c-2.85-0.48-4.323-4.066-3.15-6.581c1.267-3.589,5.713-5.011,9.141-3.947c3.567,1.059,5.92,4.714,6.104,8.334
		c0.22,2.334-0.476,4.601-1.219,6.778c-3.619,12.885-7.646,25.655-11.813,38.372c-1.755,5.663-3.587,11.315-4.932,17.091
		c-0.87,6.23,3.864,13.025,10.313,13.519c4.682,0.557,9.629-2.68,10.594-7.369c0.577-2.982-0.581-6.36-3.253-7.969
		c-2.195-1.523-5.455-1.331-7.284,0.685c-1.411,1.505-1.638,4.422,0.356,5.55c1.084,1.151,3.756-0.098,3.355-1.247
		c-1.599-0.298-3.004-2.623-0.712-3.094c2.429-0.854,4.674,1.51,4.95,3.787c0.435,3.159-2.149,6.122-5.176,6.722
		c-3.067,0.764-6.545-0.368-8.391-2.981c-2.657-3.235-2.449-7.891-1.04-11.616c2.602-8.513,5.306-16.997,8.034-25.472
		c2.684-8.332,5.225-16.709,7.565-25.144c1.164-3.632,2.224-7.739,0.581-11.4C236.399,27.057,232.436,23.925,228.098,23.573z
		 M14.61,113.658c-3.952,0-7.181,3.22-7.181,7.172c0,3.951,3.229,7.181,7.181,7.181s7.172-3.229,7.172-7.181
		C21.782,116.877,18.562,113.658,14.61,113.658z M228.322,113.789c-3.952,0-7.172,3.229-7.172,7.182c0,3.951,3.22,7.172,7.172,7.172
		s7.182-3.221,7.182-7.172C235.504,117.018,232.274,113.789,228.322,113.789z M14.61,115.477c2.968,0,5.353,2.385,5.353,5.354
		c0,2.968-2.385,5.361-5.353,5.361s-5.362-2.394-5.362-5.361C9.248,117.861,11.642,115.477,14.61,115.477z M228.322,115.607
		c2.969,0,5.362,2.395,5.362,5.363c0,2.968-2.394,5.353-5.362,5.353s-5.354-2.385-5.354-5.353
		C222.969,118.002,225.354,115.607,228.322,115.607z M12.669,130.945c-4.096,0.309-7.987,3.294-8.832,7.396
		c-0.577,2.982,0.582,6.36,3.253,7.969c2.195,1.523,5.455,1.332,7.284-0.684c1.411-1.506,1.638-4.423-0.356-5.551
		c-1.083-1.15-3.756,0.099-3.356,1.247c1.599,0.298,3.004,2.623,0.712,3.094c-2.429,0.854-4.674-1.511-4.95-3.788
		c-0.435-3.158,2.149-6.121,5.175-6.721c3.067-0.766,6.545,0.377,8.391,2.99c2.657,3.235,2.45,7.881,1.041,11.605
		c-2.602,8.514-5.307,16.998-8.034,25.473c-2.684,8.332-5.225,16.709-7.566,25.144c-1.164,3.632-2.224,7.739-0.581,11.399
		c1.633,4.72,6.576,8.131,11.606,7.585c4.844-0.358,9.313-4.989,8.597-9.976c-0.315-3.178-2.916-6.015-6.131-6.346
		c-2.57-0.288-5.503,1.553-5.578,4.313c-0.25,1.835,1.476,3.651,3.328,3.309c1.157-0.262,2.355-2.242,0.487-2.222
		c-2.276-1.071,0.017-3.185,1.716-2.644c2.85,0.48,4.323,4.075,3.15,6.59c-1.267,3.59-5.712,5.002-9.141,3.938
		c-3.567-1.058-5.92-4.713-6.103-8.334c-0.219-2.334,0.475-4.6,1.219-6.777c3.619-12.886,7.646-25.655,11.813-38.373
		c1.754-5.662,3.587-11.314,4.931-17.09c0.871-6.23-3.864-13.025-10.313-13.52C13.847,130.904,13.254,130.9,12.669,130.945z
		 M229.71,130.945c-0.585-0.045-1.178-0.041-1.763,0.027c-6.449,0.494-11.184,7.289-10.313,13.52
		c1.344,5.775,3.177,11.428,4.932,17.09c4.166,12.718,8.193,25.487,11.813,38.373c0.744,2.178,1.438,4.443,1.219,6.777
		c-0.184,3.621-2.537,7.276-6.104,8.334c-3.428,1.064-7.873-0.348-9.141-3.938c-1.173-2.515,0.301-6.109,3.15-6.59
		c1.699-0.541,3.991,1.572,1.715,2.644c-1.867-0.021-0.668,1.96,0.488,2.222c1.852,0.343,3.578-1.474,3.328-3.309
		c-0.075-2.76-3.009-4.601-5.578-4.313c-3.216,0.331-5.816,3.168-6.132,6.346c-0.716,4.986,3.753,9.617,8.597,9.976
		c5.031,0.546,9.973-2.865,11.606-7.585c1.644-3.66,0.583-7.768-0.581-11.399c-2.341-8.435-4.882-16.812-7.565-25.144
		c-2.728-8.475-5.433-16.959-8.034-25.473c-1.41-3.725-1.617-8.37,1.04-11.605c1.845-2.613,5.323-3.756,8.391-2.99
		c3.026,0.6,5.61,3.563,5.175,6.721c-0.275,2.277-2.521,4.642-4.949,3.788c-2.291-0.471-0.887-2.796,0.712-3.094
		c0.401-1.148-2.272-2.397-3.356-1.247c-1.993,1.128-1.766,4.045-0.355,5.551c1.828,2.016,5.088,2.207,7.284,0.684
		c2.671-1.608,3.83-4.986,3.253-7.969C237.696,134.239,233.806,131.254,229.71,130.945z M32.488,211.627
		c-0.381,0.018-0.761,0.059-1.134,0.131c-4.688,0.965-7.917,5.912-7.359,10.594c0.493,6.449,7.288,11.184,13.519,10.313
		c5.776-1.344,11.428-3.168,17.09-4.922c12.717-4.166,25.477-8.203,38.363-11.822c2.178-0.744,4.453-1.428,6.787-1.209
		c3.621,0.184,7.267,2.526,8.325,6.094c1.064,3.428-0.349,7.873-3.938,9.141c-2.515,1.173-6.101-0.291-6.581-3.141
		c-0.541-1.699,1.563-4.002,2.634-1.725c-0.021,1.867,1.959,0.668,2.222-0.488c0.343-1.852-1.474-3.568-3.309-3.318
		c-2.759,0.074-4.6,2.999-4.313,5.568c0.332,3.216,3.178,5.816,6.356,6.131c4.986,0.717,9.617-3.752,9.975-8.596
		c0.546-5.031-2.865-9.973-7.584-11.607c-3.661-1.643-7.768-0.582-11.4,0.582c-8.434,2.341-16.821,4.882-25.153,7.565
		c-8.475,2.728-16.959,5.433-25.472,8.034c-3.725,1.41-8.371,1.617-11.606-1.041c-2.613-1.844-3.746-5.322-2.981-8.391
		c0.6-3.025,3.554-5.6,6.712-5.165c2.277,0.276,4.641,2.512,3.788,4.94c-0.471,2.291-2.796,0.887-3.094-0.713
		c-1.149-0.4-2.388,2.273-1.238,3.357c1.128,1.993,4.044,1.766,5.55,0.355c2.016-1.829,2.198-5.088,0.675-7.284
		C37.915,212.674,35.155,211.498,32.488,211.627z M209.891,211.627c-2.666-0.129-5.426,1.047-6.834,3.384
		c-1.523,2.196-1.341,5.455,0.675,7.284c1.506,1.41,4.423,1.638,5.55-0.355c1.15-1.084-0.088-3.758-1.237-3.357
		c-0.298,1.6-2.622,3.004-3.094,0.713c-0.854-2.429,1.511-4.664,3.788-4.94c3.158-0.435,6.112,2.14,6.712,5.165
		c0.765,3.068-0.368,6.547-2.981,8.391c-3.234,2.658-7.881,2.451-11.605,1.041c-8.514-2.602-17.006-5.307-25.481-8.034
		c-8.332-2.684-16.71-5.225-25.144-7.565c-3.633-1.164-7.739-2.225-11.4-0.582c-4.719,1.635-8.131,6.576-7.584,11.607
		c0.357,4.844,4.988,9.313,9.975,8.596c3.178-0.314,6.024-2.915,6.356-6.131c0.287-2.569-1.554-5.494-4.313-5.568
		c-1.836-0.25-3.652,1.467-3.31,3.318c0.262,1.156,2.242,2.355,2.222,0.488c1.071-2.277,3.175,0.025,2.635,1.725
		c-0.479,2.85-4.066,4.313-6.581,3.141c-3.59-1.268-5.002-5.713-3.938-9.141c1.059-3.567,4.703-5.91,8.324-6.094
		c2.335-0.219,4.61,0.465,6.788,1.209c12.886,3.619,25.646,7.656,38.362,11.822c5.662,1.754,11.314,3.578,17.091,4.922
		c6.23,0.871,13.025-3.863,13.519-10.313c0.557-4.682-2.67-9.629-7.359-10.594C210.652,211.686,210.271,211.645,209.891,211.627z
		 M121.109,215.217c-3.952,0-7.181,3.22-7.181,7.172s3.229,7.182,7.181,7.182c3.953,0,7.172-3.229,7.172-7.182
		S125.063,215.217,121.109,215.217z M121.109,217.035c2.969,0,5.354,2.386,5.354,5.354c0,2.969-2.385,5.363-5.354,5.363
		c-2.968,0-5.362-2.395-5.362-5.363C115.747,219.421,118.142,217.035,121.109,217.035z"/>
	<linearGradient id="path6744_1_" gradientUnits="userSpaceOnUse" x1="3.2686" y1="119.9336" x2="238.5615" y2="119.9336">
		<stop  offset="0" style="stop-color:#3E3E3E"/>
		<stop  offset="1" style="stop-color:#000000"/>
	</linearGradient>
	<path id="path6744" fill="url(#path6744_1_)" fill-opacity="0.0941" d="M102.826,7.706c-0.604-0.063-1.224-0.052-1.847,0.038
		c-3.178,0.315-6.024,2.925-6.356,6.141c-0.287,2.569,1.554,5.494,4.313,5.568c1.835,0.25,3.652-1.476,3.31-3.328
		c-0.263-1.156-2.242-2.355-2.222-0.487c-1.071,2.276-3.174-0.016-2.634-1.716c0.48-2.849,4.066-4.323,6.581-3.15
		c3.589,1.267,5.002,5.713,3.938,9.141c-1.058,3.567-4.704,5.92-8.325,6.103c-2.334,0.219-4.61-0.475-6.788-1.219
		C79.91,21.178,67.149,17.15,54.433,12.984c-5.663-1.754-11.315-3.578-17.091-4.922c-6.23-0.871-13.025,3.854-13.519,10.303
		c-0.557,4.681,2.67,9.628,7.359,10.594c2.982,0.577,6.369-0.582,7.978-3.253c1.523-2.196,1.331-5.456-0.685-7.285
		c-1.505-1.41-4.422-1.637-5.55,0.356c-1.151,1.083,0.089,3.757,1.237,3.356c0.297-1.6,2.623-3.004,3.094-0.713
		c0.854,2.429-1.51,4.674-3.788,4.95c-3.158,0.435-6.112-2.14-6.712-5.166c-0.764-3.068,0.368-6.555,2.981-8.4
		c3.235-2.658,7.881-2.45,11.606-1.041c8.513,2.602,17.006,5.307,25.481,8.035c8.332,2.684,16.709,5.225,25.144,7.565
		c3.632,1.164,7.739,2.224,11.4,0.582c4.719-1.634,8.13-6.576,7.584-11.606C110.641,12.102,107.058,8.148,102.826,7.706z
		 M139.258,7.847c-4.231,0.442-7.814,4.396-8.129,8.634c-0.545,5.03,2.865,9.973,7.585,11.606c3.661,1.643,7.768,0.582,11.399-0.582
		c8.435-2.341,16.813-4.882,25.145-7.565c8.475-2.728,16.968-5.433,25.48-8.035c3.726-1.409,8.371-1.617,11.606,1.041
		c2.613,1.845,3.745,5.323,2.981,8.391c-0.6,3.026-3.555,5.609-6.713,5.175c-2.277-0.276-4.641-2.521-3.787-4.95
		c0.471-2.291,2.797-0.887,3.094,0.713c1.148,0.4,2.389-2.273,1.237-3.356c-1.128-1.994-4.044-1.767-5.55-0.356
		c-2.016,1.829-2.198,5.089-0.675,7.285c1.608,2.671,4.987,3.83,7.969,3.253c4.688-0.965,7.916-5.913,7.359-10.594
		c-0.493-6.449-7.288-11.183-13.519-10.313c-5.776,1.344-11.428,3.177-17.091,4.931c-12.718,4.167-25.478,8.194-38.362,11.813
		c-2.178,0.744-4.453,1.438-6.788,1.219c-3.62-0.183-7.267-2.536-8.325-6.103c-1.063-3.428,0.35-7.874,3.938-9.141
		c2.516-1.173,6.102,0.301,6.582,3.15c0.54,1.7-1.564,3.992-2.635,1.716c0.021-1.868-1.959-0.669-2.222,0.487
		c-0.343,1.852,1.474,3.578,3.31,3.328c2.758-0.075,4.6-3.008,4.313-5.578c-0.332-3.215-3.178-5.816-6.356-6.131
		C140.48,7.794,139.861,7.783,139.258,7.847z M120.938,11.146c-3.952,0-7.181,3.229-7.181,7.181c0,3.952,3.229,7.182,7.181,7.182
		c3.952,0,7.172-3.229,7.172-7.182C128.11,14.376,124.891,11.146,120.938,11.146z M120.938,12.965c2.968,0,5.362,2.394,5.362,5.362
		s-2.395,5.363-5.362,5.363s-5.362-2.395-5.362-5.363S117.971,12.965,120.938,12.965z M14.411,22.593
		c-4.338,0.352-8.302,3.474-9.731,7.604c-1.643,3.661-0.582,7.768,0.582,11.4c2.341,8.434,4.882,16.812,7.565,25.144
		c2.728,8.475,5.433,16.969,8.034,25.481c1.41,3.725,1.617,8.371-1.041,11.606c-1.845,2.614-5.323,3.746-8.391,2.981
		c-3.026-0.6-5.609-3.554-5.175-6.712c0.276-2.277,2.521-4.641,4.95-3.788c2.292,0.471,0.887,2.787-0.712,3.084
		c-0.4,1.148,2.272,2.397,3.356,1.247c1.994-1.127,1.767-4.044,0.356-5.55c-1.829-2.016-5.088-2.208-7.284-0.685
		c-2.671,1.609-3.83,4.997-3.253,7.979c0.965,4.688,5.913,7.916,10.594,7.359c6.449-0.493,11.183-7.289,10.313-13.519
		c-1.344-5.776-3.177-11.428-4.932-17.09c-4.166-12.717-8.193-25.478-11.813-38.363c-0.744-2.178-1.438-4.453-1.219-6.788
		c0.184-3.621,2.536-7.267,6.104-8.325c3.428-1.064,7.874,0.349,9.141,3.938c1.173,2.515-0.301,6.101-3.15,6.581
		c-1.699,0.541-3.992-1.563-1.715-2.634c1.868,0.021,0.669-1.959-0.488-2.222c-1.852-0.343-3.578,1.474-3.328,3.309
		c0.075,2.759,3.009,4.6,5.578,4.313c3.216-0.332,5.816-3.178,6.131-6.356c0.716-4.987-3.753-9.617-8.597-9.975
		C15.657,22.544,15.03,22.543,14.411,22.593z M227.673,22.725c-0.62-0.05-1.246-0.04-1.875,0.028
		c-4.844,0.358-9.313,4.988-8.597,9.975c0.315,3.178,2.916,6.015,6.131,6.347c2.57,0.288,5.504-1.554,5.578-4.313
		c0.25-1.835-1.476-3.652-3.328-3.31c-1.156,0.263-2.355,2.243-0.487,2.222c2.276,1.071-0.017,3.184-1.716,2.644
		c-2.85-0.48-4.322-4.066-3.149-6.581c1.267-3.589,5.712-5.011,9.141-3.947c3.567,1.058,5.92,4.713,6.103,8.334
		c0.22,2.334-0.475,4.601-1.219,6.778c-3.618,12.885-7.646,25.655-11.813,38.372c-1.754,5.663-3.587,11.314-4.931,17.09
		c-0.87,6.23,3.863,13.026,10.313,13.519c4.681,0.557,9.628-2.68,10.594-7.369c0.577-2.982-0.582-6.36-3.253-7.969
		c-2.196-1.523-5.455-1.331-7.285,0.685c-1.41,1.506-1.637,4.422,0.356,5.55c1.084,1.151,3.757-0.098,3.356-1.247
		c-1.6-0.297-3.004-2.623-0.713-3.094c2.43-0.854,4.674,1.51,4.95,3.788c0.435,3.158-2.149,6.122-5.175,6.722
		c-3.068,0.764-6.545-0.368-8.391-2.981c-2.658-3.235-2.449-7.891-1.041-11.615c2.602-8.513,5.307-16.997,8.035-25.472
		c2.684-8.332,5.225-16.709,7.565-25.144c1.163-3.632,2.224-7.739,0.581-11.4C235.975,26.208,232.011,23.076,227.673,22.725z
		 M14.186,112.809c-3.952,0-7.181,3.22-7.181,7.172c0,3.953,3.229,7.181,7.181,7.181s7.172-3.229,7.172-7.181
		C21.357,116.029,18.138,112.809,14.186,112.809z M227.898,112.94c-3.953,0-7.172,3.229-7.172,7.181
		c0,3.953,3.219,7.171,7.172,7.171c3.951,0,7.181-3.219,7.181-7.171C235.079,116.169,231.85,112.94,227.898,112.94z M14.186,114.628
		c2.968,0,5.353,2.385,5.353,5.353s-2.385,5.363-5.353,5.363s-5.362-2.395-5.362-5.363S11.217,114.628,14.186,114.628z
		 M227.898,114.759c2.968,0,5.362,2.394,5.362,5.362s-2.395,5.353-5.362,5.353c-2.969,0-5.354-2.385-5.354-5.353
		S224.93,114.759,227.898,114.759z M12.245,130.097c-4.096,0.31-7.987,3.294-8.832,7.397c-0.577,2.981,0.582,6.359,3.253,7.969
		c2.195,1.522,5.455,1.33,7.284-0.686c1.411-1.506,1.638-4.422-0.356-5.549c-1.083-1.151-3.756,0.098-3.356,1.246
		c1.599,0.298,3.004,2.623,0.712,3.094c-2.429,0.854-4.674-1.51-4.95-3.787c-0.435-3.158,2.149-6.123,5.175-6.723
		c3.068-0.764,6.545,0.378,8.391,2.991c2.658,3.235,2.45,7.882,1.041,11.606c-2.602,8.513-5.307,16.996-8.034,25.472
		c-2.684,8.332-5.225,16.71-7.566,25.144c-1.164,3.633-2.224,7.739-0.581,11.4c1.633,4.719,6.576,8.13,11.606,7.584
		c4.844-0.357,9.313-4.988,8.597-9.975c-0.315-3.179-2.916-6.016-6.131-6.348c-2.57-0.287-5.503,1.555-5.578,4.313
		c-0.25,1.836,1.476,3.652,3.328,3.311c1.157-0.264,2.355-2.243,0.487-2.223c-2.276-1.07,0.017-3.184,1.716-2.644
		c2.85,0.479,4.323,4.075,3.15,6.591c-1.267,3.589-5.712,5.002-9.141,3.938c-3.567-1.059-5.92-4.714-6.103-8.334
		c-0.219-2.335,0.475-4.602,1.219-6.779c3.619-12.885,7.646-25.654,11.813-38.371c1.754-5.663,3.587-11.314,4.931-17.091
		c0.871-6.23-3.864-13.026-10.313-13.519C13.422,130.055,12.83,130.053,12.245,130.097z M229.285,130.097
		c-0.585-0.044-1.177-0.042-1.762,0.028c-6.449,0.492-11.184,7.288-10.313,13.519c1.344,5.776,3.176,11.428,4.931,17.091
		c4.167,12.717,8.194,25.486,11.813,38.371c0.744,2.178,1.438,4.444,1.219,6.779c-0.183,3.62-2.536,7.275-6.103,8.334
		c-3.429,1.064-7.874-0.349-9.141-3.938c-1.174-2.516,0.301-6.111,3.149-6.591c1.7-0.54,3.991,1.573,1.716,2.644
		c-1.868-0.021-0.669,1.959,0.487,2.223c1.853,0.342,3.578-1.475,3.328-3.311c-0.075-2.758-3.009-4.6-5.578-4.313
		c-3.216,0.332-5.815,3.169-6.131,6.348c-0.716,4.986,3.753,9.617,8.597,9.975c5.03,0.546,9.973-2.865,11.606-7.584
		c1.643-3.661,0.582-7.768-0.581-11.4c-2.342-8.434-4.883-16.812-7.566-25.144c-2.728-8.476-5.432-16.959-8.034-25.472
		c-1.409-3.725-1.616-8.371,1.041-11.606c1.845-2.613,5.323-3.755,8.391-2.991c3.026,0.6,5.609,3.564,5.175,6.723
		c-0.275,2.277-2.521,4.641-4.95,3.787c-2.291-0.471-0.887-2.796,0.713-3.094c0.4-1.148-2.272-2.397-3.356-1.246
		c-1.994,1.127-1.767,4.043-0.356,5.549c1.829,2.016,5.089,2.208,7.284,0.686c2.672-1.609,3.83-4.987,3.254-7.969
		C237.271,133.391,233.381,130.406,229.285,130.097z M32.063,210.777c-0.381,0.019-0.761,0.06-1.134,0.132
		c-4.688,0.966-7.917,5.913-7.359,10.594c0.493,6.448,7.288,11.183,13.519,10.313c5.776-1.345,11.428-3.167,17.09-4.922
		c12.717-4.166,25.477-8.203,38.363-11.821c2.178-0.744,4.453-1.43,6.787-1.21c3.621,0.183,7.267,2.526,8.325,6.094
		c1.064,3.429-0.349,7.874-3.938,9.141c-2.515,1.173-6.101-0.291-6.581-3.141c-0.541-1.699,1.563-4.001,2.634-1.726
		c-0.021,1.869,1.959,0.67,2.222-0.486c0.343-1.853-1.474-3.569-3.309-3.319c-2.759,0.075-4.6,2.999-4.313,5.569
		c0.332,3.215,3.178,5.815,6.356,6.131c4.986,0.716,9.617-3.753,9.975-8.598c0.546-5.029-2.865-9.973-7.584-11.605
		c-3.661-1.643-7.768-0.582-11.4,0.581c-8.434,2.341-16.821,4.882-25.153,7.565c-8.475,2.729-16.959,5.433-25.472,8.035
		c-3.725,1.408-8.371,1.616-11.606-1.041c-2.613-1.846-3.745-5.323-2.981-8.391c0.6-3.026,3.554-5.601,6.712-5.166
		c2.277,0.276,4.641,2.512,3.788,4.941c-0.471,2.291-2.796,0.887-3.094-0.713c-1.149-0.4-2.388,2.272-1.238,3.355
		c1.128,1.994,4.044,1.768,5.55,0.357c2.016-1.83,2.198-5.09,0.675-7.285C37.49,211.825,34.73,210.65,32.063,210.777z
		 M209.467,210.777c-2.666-0.127-5.427,1.048-6.834,3.385c-1.523,2.195-1.341,5.455,0.675,7.285c1.505,1.41,4.422,1.637,5.55-0.357
		c1.15-1.083-0.089-3.756-1.237-3.355c-0.298,1.6-2.623,3.004-3.094,0.713c-0.854-2.43,1.51-4.665,3.787-4.941
		c3.159-0.435,6.112,2.14,6.713,5.166c0.765,3.067-0.368,6.545-2.981,8.391c-3.235,2.657-7.881,2.449-11.606,1.041
		c-8.513-2.603-17.006-5.307-25.481-8.035c-8.332-2.684-16.709-5.225-25.144-7.565c-3.632-1.163-7.739-2.224-11.399-0.581
		c-4.719,1.633-8.131,6.576-7.585,11.605c0.358,4.845,4.989,9.313,9.976,8.598c3.178-0.315,6.023-2.916,6.355-6.131
		c0.287-2.57-1.554-5.494-4.313-5.569c-1.835-0.25-3.652,1.467-3.309,3.319c0.262,1.156,2.242,2.355,2.222,0.486
		c1.071-2.275,3.175,0.026,2.634,1.726c-0.479,2.85-4.065,4.313-6.581,3.141c-3.589-1.267-5.001-5.712-3.938-9.141
		c1.059-3.567,4.704-5.911,8.325-6.094c2.334-0.22,4.609,0.466,6.787,1.21c12.886,3.618,25.646,7.655,38.363,11.821
		c5.662,1.755,11.314,3.577,17.09,4.922c6.23,0.87,13.025-3.864,13.52-10.313c0.557-4.681-2.671-9.628-7.359-10.594
		C210.229,210.837,209.848,210.796,209.467,210.777z M120.686,214.369c-3.952,0-7.181,3.219-7.181,7.172
		c0,3.951,3.229,7.181,7.181,7.181s7.172-3.229,7.172-7.181C127.857,217.588,124.638,214.369,120.686,214.369z M120.686,216.188
		c2.969,0,5.354,2.385,5.354,5.354c0,2.968-2.385,5.361-5.354,5.361c-2.968,0-5.362-2.394-5.362-5.361
		C115.323,218.572,117.717,216.188,120.686,216.188z"/>
	<linearGradient id="path5853_1_" gradientUnits="userSpaceOnUse" x1="2.4204" y1="119.9307" x2="237.7139" y2="119.9307">
		<stop  offset="0" style="stop-color:#3E3E3E"/>
		<stop  offset="1" style="stop-color:#000000"/>
	</linearGradient>
	<path id="path5853" fill="url(#path5853_1_)" fill-opacity="0.0941" d="M101.978,7.703c-0.604-0.063-1.224-0.052-1.847,0.038
		c-3.178,0.315-6.024,2.925-6.356,6.141c-0.288,2.57,1.554,5.494,4.313,5.569c1.835,0.25,3.652-1.476,3.309-3.328
		c-0.262-1.157-2.242-2.355-2.222-0.487c-1.071,2.276-3.175-0.017-2.634-1.716c0.48-2.85,4.066-4.323,6.581-3.15
		c3.589,1.267,5.002,5.712,3.938,9.141c-1.058,3.567-4.704,5.92-8.325,6.103c-2.334,0.219-4.61-0.475-6.788-1.219
		c-12.885-3.619-25.646-7.646-38.363-11.813c-5.662-1.754-11.314-3.578-17.09-4.922c-6.23-0.871-13.026,3.854-13.519,10.303
		c-0.557,4.681,2.671,9.628,7.359,10.594c2.982,0.577,6.37-0.582,7.979-3.253c1.523-2.195,1.331-5.455-0.685-7.284
		c-1.506-1.411-4.422-1.638-5.55,0.356c-1.151,1.083,0.089,3.756,1.237,3.356c0.297-1.599,2.623-3.004,3.094-0.712
		c0.854,2.429-1.51,4.674-3.788,4.95c-3.158,0.435-6.113-2.14-6.712-5.166c-0.764-3.067,0.368-6.555,2.981-8.4
		c3.235-2.658,7.881-2.45,11.606-1.041c8.513,2.602,17.006,5.307,25.481,8.034c8.332,2.684,16.709,5.225,25.144,7.566
		c3.632,1.164,7.739,2.224,11.4,0.581c4.719-1.633,8.131-6.576,7.584-11.606C109.793,12.099,106.209,8.146,101.978,7.703z
		 M138.409,7.844c-4.231,0.442-7.815,4.396-8.128,8.635c-0.547,5.03,2.865,9.973,7.584,11.606c3.661,1.643,7.768,0.583,11.4-0.581
		c8.434-2.341,16.812-4.882,25.144-7.566c8.476-2.728,16.968-5.433,25.481-8.034c3.725-1.409,8.371-1.617,11.605,1.041
		c2.613,1.845,3.746,5.323,2.982,8.391c-0.6,3.026-3.555,5.61-6.713,5.175c-2.277-0.276-4.641-2.521-3.787-4.95
		c0.471-2.292,2.796-0.887,3.094,0.712c1.148,0.4,2.388-2.272,1.236-3.356c-1.127-1.994-4.043-1.767-5.549-0.356
		c-2.016,1.829-2.199,5.089-0.676,7.284c1.609,2.671,4.986,3.83,7.969,3.253c4.689-0.965,7.916-5.913,7.359-10.594
		c-0.492-6.449-7.288-11.183-13.519-10.313c-5.776,1.344-11.429,3.177-17.091,4.931c-12.717,4.166-25.477,8.194-38.362,11.813
		c-2.178,0.744-4.453,1.438-6.788,1.219c-3.62-0.183-7.266-2.536-8.324-6.103c-1.064-3.428,0.349-7.874,3.938-9.141
		c2.516-1.173,6.102,0.3,6.581,3.15c0.54,1.699-1.563,3.992-2.634,1.716c0.02-1.868-1.96-0.669-2.223,0.487
		c-0.342,1.852,1.475,3.578,3.31,3.328c2.759-0.075,4.6-3.008,4.313-5.578c-0.332-3.215-3.179-5.816-6.356-6.131
		C139.633,7.792,139.014,7.781,138.409,7.844z M120.09,11.144c-3.952,0-7.181,3.229-7.181,7.181s3.229,7.181,7.181,7.181
		c3.953,0,7.171-3.229,7.171-7.181S124.043,11.144,120.09,11.144z M120.09,12.963c2.968,0,5.363,2.394,5.363,5.362
		s-2.395,5.362-5.363,5.362s-5.362-2.394-5.362-5.362S117.122,12.963,120.09,12.963z M13.563,22.591
		c-4.338,0.352-8.302,3.474-9.731,7.603c-1.643,3.661-0.582,7.768,0.581,11.4c2.341,8.435,4.882,16.812,7.566,25.144
		c2.728,8.475,5.433,16.968,8.034,25.481c1.41,3.725,1.617,8.371-1.041,11.606c-1.845,2.613-5.323,3.746-8.391,2.981
		c-3.026-0.6-5.609-3.554-5.175-6.713c0.276-2.277,2.521-4.641,4.95-3.787c2.292,0.471,0.887,2.787-0.712,3.084
		c-0.4,1.149,2.272,2.397,3.356,1.247c1.994-1.128,1.767-4.044,0.356-5.55c-1.829-2.016-5.088-2.208-7.284-0.685
		c-2.671,1.609-3.83,4.996-3.253,7.978c0.965,4.689,5.913,7.917,10.594,7.359c6.449-0.493,11.183-7.288,10.313-13.519
		c-1.344-5.776-3.177-11.428-4.931-17.091C14.627,66.414,10.6,53.654,6.981,40.769c-0.744-2.178-1.438-4.453-1.219-6.788
		c0.183-3.621,2.536-7.267,6.103-8.325c3.428-1.064,7.874,0.349,9.141,3.938c1.173,2.516-0.3,6.102-3.15,6.582
		c-1.699,0.54-3.992-1.563-1.715-2.634c1.868,0.02,0.669-1.96-0.488-2.222c-1.852-0.343-3.578,1.474-3.328,3.31
		c0.075,2.758,3.009,4.6,5.578,4.313c3.216-0.332,5.816-3.178,6.131-6.356c0.716-4.986-3.753-9.617-8.597-9.975
		C14.809,22.541,14.182,22.541,13.563,22.591z M226.824,22.722c-0.619-0.05-1.246-0.041-1.875,0.028
		c-4.844,0.358-9.313,4.989-8.596,9.975c0.314,3.178,2.915,6.015,6.131,6.347c2.569,0.287,5.503-1.554,5.578-4.313
		c0.25-1.836-1.477-3.652-3.328-3.31c-1.156,0.262-2.355,2.242-0.488,2.222c2.277,1.071-0.016,3.184-1.715,2.644
		c-2.85-0.48-4.323-4.066-3.15-6.582c1.268-3.589,5.713-5.011,9.141-3.947c3.567,1.059,5.92,4.713,6.104,8.334
		c0.219,2.334-0.475,4.6-1.219,6.778c-3.619,12.885-7.646,25.654-11.813,38.372c-1.755,5.663-3.588,11.315-4.932,17.091
		c-0.87,6.23,3.863,13.025,10.313,13.519c4.682,0.557,9.629-2.68,10.594-7.369c0.577-2.982-0.582-6.36-3.253-7.969
		c-2.196-1.523-5.455-1.332-7.284,0.685c-1.41,1.505-1.638,4.422,0.355,5.55c1.084,1.15,3.758-0.098,3.357-1.247
		c-1.6-0.297-3.004-2.623-0.713-3.094c2.429-0.854,4.674,1.51,4.949,3.788c0.436,3.159-2.148,6.122-5.174,6.722
		c-3.068,0.764-6.546-0.368-8.391-2.981c-2.658-3.235-2.451-7.891-1.041-11.616c2.602-8.513,5.307-16.997,8.034-25.472
		c2.684-8.333,5.225-16.709,7.565-25.144c1.164-3.632,2.225-7.739,0.582-11.4C235.127,26.206,231.162,23.073,226.824,22.722z
		 M13.337,112.807c-3.952,0-7.181,3.22-7.181,7.172c0,3.951,3.229,7.182,7.181,7.182s7.172-3.23,7.172-7.182
		C20.509,116.026,17.29,112.807,13.337,112.807z M227.05,112.938c-3.952,0-7.172,3.229-7.172,7.182c0,3.951,3.22,7.172,7.172,7.172
		s7.181-3.221,7.181-7.172C234.23,116.167,231.002,112.938,227.05,112.938z M13.337,114.625c2.968,0,5.353,2.385,5.353,5.354
		c0,2.968-2.385,5.362-5.353,5.362s-5.363-2.395-5.363-5.362C7.975,117.01,10.369,114.625,13.337,114.625z M227.05,114.756
		c2.968,0,5.362,2.395,5.362,5.363c0,2.968-2.395,5.354-5.362,5.354s-5.353-2.386-5.353-5.354
		C221.697,117.151,224.082,114.756,227.05,114.756z M11.396,130.094c-4.096,0.309-7.986,3.295-8.831,7.396
		c-0.577,2.982,0.582,6.36,3.253,7.969c2.196,1.523,5.456,1.332,7.285-0.684c1.41-1.506,1.638-4.422-0.356-5.551
		c-1.083-1.15-3.756,0.099-3.356,1.248c1.599,0.297,3.003,2.623,0.712,3.094c-2.429,0.854-4.674-1.511-4.95-3.788
		c-0.435-3.158,2.149-6.122,5.175-6.722c3.067-0.765,6.545,0.377,8.391,2.99c2.657,3.236,2.45,7.881,1.041,11.606
		c-2.602,8.513-5.307,16.997-8.035,25.472c-2.683,8.332-5.225,16.71-7.565,25.145c-1.164,3.632-2.224,7.738-0.581,11.399
		c1.633,4.719,6.576,8.13,11.606,7.585c4.844-0.359,9.313-4.989,8.597-9.976c-0.315-3.179-2.916-6.015-6.131-6.347
		c-2.57-0.287-5.503,1.554-5.578,4.313c-0.25,1.836,1.476,3.652,3.328,3.309c1.157-0.262,2.355-2.242,0.487-2.221
		c-2.276-1.072,0.017-3.185,1.716-2.645c2.85,0.48,4.323,4.076,3.15,6.591c-1.267,3.589-5.712,5.001-9.141,3.938
		c-3.567-1.059-5.92-4.714-6.103-8.335c-0.219-2.334,0.475-4.6,1.219-6.777c3.619-12.886,7.646-25.654,11.813-38.372
		c1.754-5.663,3.587-11.315,4.931-17.091c0.871-6.23-3.864-13.025-10.313-13.519C12.574,130.053,11.982,130.05,11.396,130.094z
		 M228.438,130.094c-0.586-0.044-1.178-0.041-1.763,0.028c-6.448,0.493-11.183,7.288-10.313,13.519
		c1.344,5.775,3.177,11.428,4.931,17.091c4.166,12.718,8.194,25.486,11.813,38.372c0.744,2.178,1.438,4.443,1.219,6.777
		c-0.183,3.621-2.535,7.276-6.103,8.335c-3.429,1.063-7.874-0.349-9.141-3.938c-1.173-2.515,0.301-6.11,3.149-6.591
		c1.7-0.54,3.992,1.572,1.717,2.645c-1.869-0.021-0.67,1.959,0.486,2.221c1.853,0.344,3.578-1.473,3.328-3.309
		c-0.074-2.759-3.008-4.6-5.578-4.313c-3.215,0.332-5.815,3.168-6.131,6.347c-0.716,4.986,3.753,9.616,8.598,9.976
		c5.029,0.545,9.973-2.866,11.605-7.585c1.643-3.661,0.582-7.768-0.581-11.399c-2.341-8.435-4.882-16.813-7.565-25.145
		c-2.729-8.475-5.433-16.959-8.035-25.472c-1.408-3.726-1.616-8.37,1.041-11.606c1.846-2.613,5.323-3.755,8.391-2.99
		c3.025,0.6,5.609,3.563,5.176,6.722c-0.276,2.277-2.521,4.642-4.951,3.788c-2.291-0.471-0.887-2.797,0.713-3.094
		c0.4-1.149-2.272-2.398-3.355-1.248c-1.994,1.129-1.768,4.045-0.357,5.551c1.83,2.016,5.09,2.207,7.285,0.684
		c2.671-1.608,3.83-4.986,3.253-7.969C236.424,133.389,232.533,130.402,228.438,130.094z M31.215,210.775
		c-0.381,0.018-0.762,0.059-1.134,0.131c-4.688,0.965-7.917,5.912-7.359,10.594c0.493,6.449,7.288,11.184,13.519,10.313
		c5.776-1.344,11.428-3.167,17.091-4.922c12.717-4.166,25.477-8.203,38.362-11.822c2.178-0.743,4.453-1.428,6.788-1.209
		c3.621,0.184,7.267,2.527,8.325,6.094c1.064,3.428-0.349,7.873-3.938,9.141c-2.515,1.174-6.101-0.291-6.582-3.141
		c-0.54-1.699,1.563-4.001,2.635-1.725c-0.021,1.867,1.959,0.669,2.222-0.488c0.343-1.852-1.474-3.568-3.31-3.318
		c-2.758,0.075-4.6,2.999-4.313,5.568c0.332,3.216,3.178,5.816,6.356,6.132c4.986,0.716,9.617-3.753,9.975-8.597
		c0.546-5.031-2.865-9.973-7.584-11.606c-3.661-1.643-7.768-0.583-11.4,0.581c-8.434,2.341-16.821,4.883-25.153,7.566
		c-8.475,2.728-16.959,5.432-25.472,8.033c-3.725,1.41-8.371,1.617-11.606-1.04c-2.613-1.845-3.746-5.323-2.981-8.391
		c0.6-3.026,3.554-5.601,6.712-5.165c2.277,0.275,4.641,2.512,3.788,4.939c-0.471,2.292-2.796,0.887-3.094-0.712
		c-1.149-0.4-2.388,2.272-1.238,3.356c1.128,1.994,4.044,1.767,5.55,0.355c2.016-1.828,2.198-5.088,0.675-7.283
		C36.642,211.822,33.882,210.646,31.215,210.775z M208.619,210.775c-2.668-0.129-5.428,1.047-6.835,3.385
		c-1.522,2.195-1.341,5.455,0.675,7.283c1.506,1.411,4.422,1.639,5.551-0.355c1.15-1.084-0.09-3.757-1.238-3.356
		c-0.297,1.599-2.623,3.004-3.094,0.712c-0.854-2.428,1.51-4.664,3.787-4.939c3.159-0.436,6.113,2.139,6.713,5.165
		c0.765,3.067-0.367,6.546-2.98,8.391c-3.236,2.657-7.882,2.45-11.607,1.04c-8.512-2.602-17.006-5.306-25.48-8.033
		c-8.332-2.684-16.71-5.226-25.145-7.566c-3.632-1.164-7.738-2.224-11.399-0.581c-4.719,1.634-8.13,6.575-7.585,11.606
		c0.359,4.844,4.989,9.313,9.976,8.597c3.179-0.315,6.024-2.916,6.356-6.132c0.287-2.569-1.555-5.493-4.313-5.568
		c-1.836-0.25-3.652,1.467-3.31,3.318c0.263,1.157,2.242,2.355,2.222,0.488c1.071-2.276,3.175,0.025,2.635,1.725
		c-0.48,2.85-4.066,4.314-6.582,3.141c-3.588-1.268-5.001-5.713-3.938-9.141c1.059-3.566,4.705-5.91,8.326-6.094
		c2.334-0.219,4.609,0.466,6.787,1.209c12.885,3.619,25.645,7.656,38.362,11.822c5.663,1.755,11.315,3.578,17.091,4.922
		c6.23,0.871,13.025-3.863,13.519-10.313c0.558-4.682-2.671-9.629-7.359-10.594C209.381,210.834,209,210.793,208.619,210.775z
		 M119.837,214.365c-3.952,0-7.181,3.221-7.181,7.172c0,3.953,3.229,7.182,7.181,7.182c3.952,0,7.172-3.229,7.172-7.182
		C127.01,217.586,123.789,214.365,119.837,214.365z M119.837,216.185c2.968,0,5.353,2.385,5.353,5.353
		c0,2.969-2.385,5.363-5.353,5.363s-5.363-2.395-5.363-5.363C114.475,218.569,116.869,216.185,119.837,216.185z"/>
	<g id="g5837" transform="scale(0.3,0.3)">
		
			<linearGradient id="path1288_1_" gradientUnits="userSpaceOnUse" x1="-2559.7363" y1="-1022.9688" x2="-2496.3154" y2="-996.8715" gradientTransform="matrix(-0.3 0 0 -0.3 -685.0355 -74.2932)">
			<stop  offset="0" style="stop-color:#3E3E3E"/>
			<stop  offset="1" style="stop-color:#000000"/>
		</linearGradient>
		<path id="path1288" fill="url(#path1288_1_)" d="M49.08,70.728c16.147,1.193,31.055,16.621,28.667,33.244
			c-1.052,10.592-9.741,20.063-20.459,21.17c-8.566,0.957-18.319-5.176-18.569-14.372c-0.833-6.118,4.914-12.173,11.087-11.03
			c3.856,0.876,7.855,7.472,1.628,7.404c-7.586,3.571,0.057,10.597,5.723,8.797c9.497-1.6,14.399-13.563,10.49-21.947
			C63.423,82.031,48.61,77.321,37.183,80.868c-11.89,3.529-19.728,15.695-20.339,27.764c-0.731,7.782,1.574,15.345,4.053,22.606
			c12.062,42.951,25.5,85.498,39.386,127.889c5.848,18.875,11.932,37.723,16.411,56.978c2.902,20.768-12.868,43.407-34.364,45.051
			c-15.604,1.857-32.091-8.908-35.309-24.538c-1.924-9.94,1.943-21.208,10.848-26.571c7.319-5.077,18.174-4.45,24.271,2.271
			c4.701,5.018,5.459,14.735-1.188,18.494c-3.612,3.835-12.518-0.309-11.183-4.139c5.33-0.991,10.013-8.737,2.376-10.306
			c-8.096-2.845-15.568,5.034-16.489,12.625c-1.448,10.529,7.14,20.396,17.227,22.396c10.226,2.547,21.826-1.242,27.977-9.953
			c8.857-10.785,8.171-26.281,3.473-38.698c-8.673-28.376-17.69-56.66-26.784-84.911c-8.945-27.773-17.411-55.706-25.213-83.82
			c-3.879-12.108-7.41-25.799-1.935-38.001C15.846,80.273,32.313,68.906,49.08,70.728z"/>
		
			<linearGradient id="path4701_1_" gradientUnits="userSpaceOnUse" x1="2805.4751" y1="4266.1357" x2="2732.0134" y2="4190.0547" gradientTransform="matrix(0 0.3 0.3 0 -1027.0105 -752.7314)">
			<stop  offset="0" style="stop-color:#3E3E3E"/>
			<stop  offset="1" style="stop-color:#000000"/>
		</linearGradient>
		<path id="path4701" fill="url(#path4701_1_)" d="M364.635,49.821c-1.195-16.147-16.623-31.055-33.244-28.667
			c-10.594,1.05-20.065,9.741-21.17,20.459c-0.959,8.566,5.176,18.319,14.37,18.569c6.118,0.833,12.173-4.915,11.03-11.087
			c-0.874-3.856-7.472-7.855-7.404-1.628c-3.569,7.586-10.597-0.059-8.795-5.723c1.6-9.499,13.563-14.401,21.947-10.49
			c11.963,4.224,16.673,19.036,13.127,30.464c-3.529,11.89-15.695,19.728-27.765,20.339c-7.781,0.731-15.345-1.574-22.604-4.053
			c-42.951-12.062-85.5-25.5-127.889-39.386c-18.875-5.848-37.725-11.932-56.978-16.411c-20.768-2.904-43.408,12.868-45.052,34.364
			c-1.855,15.604,8.909,32.091,24.538,35.309c9.94,1.922,21.208-1.945,26.571-10.848c5.076-7.319,4.45-18.174-2.269-24.271
			c-5.02-4.701-14.736-5.459-18.495,1.188c-3.836,3.612,0.309,12.518,4.137,11.183c0.991-5.33,8.737-10.013,10.306-2.376
			c2.845,8.096-5.034,15.568-12.625,16.488c-10.527,1.45-20.396-7.139-22.394-17.225c-2.547-10.226,1.24-21.826,9.951-27.977
			c10.786-8.857,26.283-8.171,38.7-3.473c28.376,8.673,56.66,17.69,84.911,26.784c27.773,8.945,55.705,17.411,83.818,25.213
			c12.108,3.879,25.799,7.411,38.003,1.935C355.088,83.055,366.455,66.589,364.635,49.821z"/>
		
			<linearGradient id="path4709_1_" gradientUnits="userSpaceOnUse" x1="4451.1196" y1="-1873.1899" x2="4392.3804" y2="-1817.4629" gradientTransform="matrix(0.1818 0 0 -0.1818 -395.0732 -268.6298)">
			<stop  offset="0" style="stop-color:#3E3E3E"/>
			<stop  offset="1" style="stop-color:#000000"/>
		</linearGradient>
		<path id="path4709" fill="url(#path4709_1_)" d="M397.923,32.516c-13.174,0-23.923,10.749-23.923,23.922
			s10.749,23.922,23.923,23.922s23.926-10.749,23.926-23.922S411.097,32.516,397.923,32.516z M397.923,38.578
			c9.896,0,17.861,7.967,17.861,17.861S407.819,74.3,397.923,74.3c-9.894,0-17.861-7.967-17.861-17.861
			S388.029,38.578,397.923,38.578z"/>
		
			<linearGradient id="path5503_1_" gradientUnits="userSpaceOnUse" x1="4488.5449" y1="-1885.3645" x2="4415.7891" y2="-1829.6414" gradientTransform="matrix(0.1818 0 0 -0.1818 -750.9212 70.218)">
			<stop  offset="0" style="stop-color:#3E3E3E"/>
			<stop  offset="1" style="stop-color:#000000"/>
		</linearGradient>
		<path id="path5503" fill="url(#path5503_1_)" d="M42.077,371.362c-13.174,0-23.924,10.75-23.924,23.924
			c0,13.171,10.75,23.922,23.924,23.922s23.923-10.752,23.923-23.922C65.999,382.113,55.251,371.362,42.077,371.362z
			 M42.077,377.424c9.894,0,17.861,7.967,17.861,17.863c0,9.893-7.967,17.861-17.861,17.861c-9.894,0-17.861-7.969-17.861-17.861
			C24.215,385.391,32.183,377.424,42.077,377.424z"/>
		
			<linearGradient id="path5517_1_" gradientUnits="userSpaceOnUse" x1="3799.9121" y1="-979.3782" x2="3736.7568" y2="-971.9914" gradientTransform="matrix(0.3 0 0 -0.3 -355.093 -73.8309)">
			<stop  offset="0" style="stop-color:#3E3E3E"/>
			<stop  offset="1" style="stop-color:#000000"/>
		</linearGradient>
		<path id="path5517" fill="url(#path5517_1_)" d="M747.458,71.188c-16.146,1.195-31.052,16.621-28.665,33.244
			c1.051,10.594,9.74,20.063,20.459,21.17c8.564,0.957,18.32-5.176,18.568-14.372c0.833-6.118-4.915-12.171-11.087-11.029
			c-3.854,0.874-7.852,7.471-1.628,7.404c7.588,3.569-0.059,10.597-5.723,8.796c-9.499-1.6-14.401-13.563-10.488-21.947
			c4.225-11.963,19.036-16.673,30.462-13.127c11.891,3.529,19.73,15.695,20.339,27.764c0.732,7.783-1.572,15.347-4.05,22.606
			c-12.064,42.951-25.501,85.5-39.388,127.889c-5.85,18.875-11.934,37.725-16.413,56.978c-2.904,20.768,12.871,43.406,34.365,45.05
			c15.602,1.857,32.09-8.908,35.309-24.536c1.921-9.94-1.947-21.209-10.846-26.571c-7.321-5.078-18.177-4.45-24.271,2.269
			c-4.704,5.02-5.462,14.736,1.185,18.495c3.613,3.836,12.52-0.309,11.185-4.139c-5.332-0.991-10.013-8.735-2.376-10.306
			c8.096-2.845,15.566,5.036,16.488,12.627c1.448,10.527-7.139,20.394-17.223,22.394c-10.228,2.547-21.829-1.24-27.979-9.951
			c-8.857-10.786-8.171-26.283-3.473-38.7c8.672-28.376,17.689-56.66,26.784-84.911c8.945-27.773,17.409-55.705,25.212-83.82
			c3.877-12.106,7.412-25.797,1.937-38.001C780.693,80.736,764.225,69.369,747.458,71.188z"/>
		
			<linearGradient id="path5519_1_" gradientUnits="userSpaceOnUse" x1="2799.9155" y1="-1979.375" x2="2736.7595" y2="-1971.9882" gradientTransform="matrix(0 0.3 -0.3 0 -13.1149 -752.2708)">
			<stop  offset="0" style="stop-color:#3E3E3E"/>
			<stop  offset="1" style="stop-color:#000000"/>
		</linearGradient>
		<path id="path5519" fill="url(#path5519_1_)" d="M431.904,50.282c1.195-16.147,16.621-31.053,33.242-28.667
			c10.596,1.051,20.065,9.741,21.172,20.459c0.957,8.566-5.176,18.32-14.372,18.569c-6.12,0.833-12.175-4.914-11.029-11.087
			c0.873-3.856,7.471-7.853,7.402-1.628c3.571,7.588,10.599-0.057,8.796-5.721c-1.598-9.499-13.561-14.401-21.947-10.491
			c-11.96,4.224-16.673,19.036-13.125,30.464c3.529,11.89,15.697,19.728,27.764,20.339c7.783,0.731,15.345-1.572,22.604-4.053
			c42.953-12.062,85.498-25.5,127.891-39.386c18.877-5.848,37.725-11.932,56.976-16.411c20.768-2.902,43.408,12.868,45.052,34.364
			c1.855,15.605-8.906,32.092-24.538,35.309c-9.938,1.924-21.208-1.943-26.569-10.848c-5.078-7.319-4.45-18.174,2.269-24.271
			c5.02-4.7,14.736-5.457,18.493,1.188c3.834,3.612-0.306,12.518-4.137,11.183c-0.993-5.33-8.737-10.013-10.306-2.376
			c-2.845,8.096,5.036,15.568,12.627,16.489c10.527,1.449,20.394-7.14,22.396-17.227c2.546-10.226-1.243-21.826-9.954-27.975
			c-10.785-8.859-26.283-8.172-38.698-3.475c-28.376,8.674-56.66,17.69-84.909,26.784c-27.773,8.945-55.706,17.41-83.822,25.213
			c-12.109,3.879-25.798,7.411-38.001,1.935C441.452,83.517,430.085,67.049,431.904,50.282z"/>
		
			<linearGradient id="path5523_1_" gradientUnits="userSpaceOnUse" x1="-5887.3237" y1="-1911.9172" x2="-5805.0884" y2="-1842.7953" gradientTransform="matrix(-0.1818 0 0 -0.1818 -289.2057 70.677)">
			<stop  offset="0" style="stop-color:#3E3E3E"/>
			<stop  offset="1" style="stop-color:#000000"/>
		</linearGradient>
		<path id="path5523" fill="url(#path5523_1_)" d="M754.463,371.823c13.174,0,23.923,10.75,23.923,23.924
			c0,13.172-10.749,23.921-23.923,23.921s-23.922-10.749-23.922-23.921C730.54,382.573,741.289,371.823,754.463,371.823z
			 M754.463,377.884c-9.893,0-17.861,7.969-17.861,17.863c0,9.894,7.969,17.86,17.861,17.86s17.861-7.965,17.861-17.86
			C772.324,385.853,764.355,377.884,754.463,377.884z"/>
		
			<linearGradient id="path5543_1_" gradientUnits="userSpaceOnUse" x1="-2552.5293" y1="3213.6458" x2="-2486.5396" y2="3183.2422" gradientTransform="matrix(-0.3 0 0 0.3 -685.8818 -372.1096)">
			<stop  offset="0" style="stop-color:#3E3E3E"/>
			<stop  offset="1" style="stop-color:#000000"/>
		</linearGradient>
		<path id="path5543" fill="url(#path5543_1_)" d="M48.234,719.538c16.147-1.195,31.053-16.624,28.667-33.245
			c-1.051-10.596-9.741-20.062-20.459-21.169c-8.566-0.96-18.32,5.176-18.569,14.368c-0.833,6.12,4.914,12.175,11.087,11.032
			c3.856-0.876,7.853-7.471,1.628-7.406c-7.588-3.568,0.057-10.599,5.721-8.796c9.499,1.602,14.401,13.561,10.492,21.947
			c-4.224,11.963-19.036,16.673-30.464,13.125c-11.89-3.529-19.728-15.693-20.339-27.76c-0.731-7.786,1.572-15.348,4.053-22.607
			c12.062-42.953,25.5-85.498,39.386-127.887c5.848-18.877,11.932-37.728,16.411-56.979c2.902-20.768-12.868-43.408-34.364-45.052
			c-15.605-1.855-32.091,8.909-35.309,24.538c-1.924,9.941,1.943,21.211,10.848,26.569c7.318,5.078,18.174,4.453,24.271-2.266
			c4.701-5.02,5.457-14.736-1.188-18.496c-3.613-3.835-12.518,0.309-11.183,4.137c5.33,0.993,10.013,8.737,2.375,10.306
			c-8.096,2.848-15.566-5.036-16.488-12.627c-1.449-10.527,7.14-20.394,17.227-22.393c10.225-2.549,21.826,1.24,27.975,9.951
			c8.859,10.788,8.172,26.283,3.475,38.698c-8.673,28.379-17.69,56.66-26.784,84.912c-8.945,27.773-17.411,55.706-25.213,83.818
			c-3.879,12.109-7.411,25.801-1.935,38.001C14.998,709.987,31.466,721.354,48.234,719.538z"/>
		
			<linearGradient id="path5545_1_" gradientUnits="userSpaceOnUse" x1="-1544.6125" y1="4205.5596" x2="-1471.1517" y2="4174.4233" gradientTransform="matrix(0 -0.3 0.3 0 -1027.8567 306.3252)">
			<stop  offset="0" style="stop-color:#3E3E3E"/>
			<stop  offset="1" style="stop-color:#000000"/>
		</linearGradient>
		<path id="path5545" fill="url(#path5545_1_)" d="M363.789,740.443c-1.195,16.146-16.623,31.055-33.244,28.665
			c-10.594-1.048-20.065-9.74-21.17-20.456c-0.959-8.568,5.176-18.32,14.37-18.571c6.118-0.833,12.173,4.912,11.03,11.087
			c-0.874,3.857-7.472,7.855-7.404,1.628c-3.569-7.588-10.597,0.055-8.797,5.723c1.6,9.495,13.563,14.401,21.947,10.492
			c11.964-4.225,16.675-19.036,13.126-30.466c-3.527-11.891-15.693-19.73-27.764-20.339c-7.781-0.732-15.345,1.572-22.604,4.053
			c-42.951,12.064-85.5,25.501-127.891,39.388c-18.875,5.846-37.723,11.93-56.976,16.409c-20.768,2.9-43.408-12.868-45.052-34.365
			c-1.857-15.602,8.908-32.09,24.538-35.306c9.94-1.927,21.208,1.94,26.571,10.846c5.077,7.318,4.45,18.174-2.269,24.271
			c-5.02,4.701-14.736,5.459-18.495-1.188c-3.836-3.613,0.309-12.516,4.137-11.182c0.991,5.329,8.737,10.013,10.306,2.373
			c2.845-8.096-5.034-15.566-12.625-16.488c-10.529-1.449-20.396,7.142-22.394,17.227c-2.549,10.228,1.24,21.826,9.951,27.975
			c10.785,8.861,26.283,8.171,38.698,3.477c28.377-8.675,56.662-17.692,84.911-26.784c27.775-8.945,55.706-17.412,83.82-25.215
			c12.108-3.88,25.799-7.409,38.001-1.934C354.242,707.207,365.609,723.675,363.789,740.443z"/>
		
			<linearGradient id="path5547_1_" gradientUnits="userSpaceOnUse" x1="4477.2231" y1="5087.9102" x2="4413.2451" y2="5046.7925" gradientTransform="matrix(0.1818 0 0 0.1818 -395.9213 -177.7732)">
			<stop  offset="0" style="stop-color:#3E3E3E"/>
			<stop  offset="1" style="stop-color:#000000"/>
		</linearGradient>
		<path id="path5547" fill="url(#path5547_1_)" d="M397.077,757.747c-13.174,0-23.924-10.749-23.924-23.923
			s10.75-23.923,23.924-23.923s23.923,10.749,23.923,23.923S410.251,757.747,397.077,757.747z M397.077,751.686
			c9.896,0,17.861-7.969,17.861-17.861s-7.966-17.861-17.861-17.861c-9.894,0-17.861,7.969-17.861,17.861
			S387.182,751.686,397.077,751.686z"/>
		
			<linearGradient id="path5569_1_" gradientUnits="userSpaceOnUse" x1="3810.957" y1="3220.7876" x2="3746.4844" y2="3183.2305" gradientTransform="matrix(0.3 0 0 0.3 -356.094 -372.1096)">
			<stop  offset="0" style="stop-color:#3E3E3E"/>
			<stop  offset="1" style="stop-color:#000000"/>
		</linearGradient>
		<path id="path5569" fill="url(#path5569_1_)" d="M746.458,719.538c-16.146-1.195-31.055-16.624-28.666-33.245
			c1.048-10.596,9.74-20.062,20.456-21.169c8.568-0.96,18.32,5.176,18.571,14.368c0.833,6.12-4.912,12.175-11.087,11.032
			c-3.857-0.876-7.855-7.471-1.627-7.406c7.588-3.568-0.055-10.599-5.723-8.796c-9.496,1.602-14.398,13.561-10.492,21.947
			c4.225,11.963,19.037,16.673,30.466,13.125c11.891-3.529,19.73-15.693,20.339-27.76c0.732-7.786-1.572-15.348-4.053-22.607
			c-12.064-42.953-25.501-85.498-39.388-127.887c-5.846-18.877-11.93-37.728-16.409-56.979c-2.9-20.768,12.868-43.408,34.365-45.052
			c15.605-1.855,32.09,8.909,35.306,24.538c1.927,9.941-1.94,21.211-10.846,26.569c-7.318,5.078-18.174,4.453-24.271-2.266
			c-4.7-5.02-5.456-14.736,1.188-18.496c3.613-3.835,12.516,0.309,11.182,4.137c-5.329,0.993-10.013,8.737-2.373,10.306
			c8.096,2.848,15.566-5.036,16.488-12.627c1.449-10.527-7.142-20.394-17.227-22.393c-10.225-2.549-21.826,1.24-27.975,9.951
			c-8.861,10.788-8.171,26.283-3.477,38.698c8.675,28.379,17.692,56.66,26.784,84.912c8.945,27.773,17.412,55.706,25.215,83.818
			c3.88,12.109,7.409,25.801,1.934,38.001C779.694,709.987,763.226,721.354,746.458,719.538z"/>
		
			<linearGradient id="path5571_1_" gradientUnits="userSpaceOnUse" x1="-1604.4043" y1="-2032.5781" x2="-1530.9442" y2="-2005.9299" gradientTransform="matrix(0 -0.3 -0.3 0 -14.1174 306.3252)">
			<stop  offset="0" style="stop-color:#3E3E3E"/>
			<stop  offset="1" style="stop-color:#000000"/>
		</linearGradient>
		<path id="path5571" fill="url(#path5571_1_)" d="M430.905,740.443c1.191,16.146,16.621,31.055,33.242,28.665
			c10.593-1.048,20.065-9.74,21.172-20.456c0.957-8.568-5.176-18.32-14.372-18.571c-6.116-0.833-12.171,4.912-11.032,11.087
			c0.875,3.857,7.474,7.855,7.406,1.628c3.571-7.588,10.596,0.055,8.799,5.723c-1.602,9.495-13.564,14.401-21.95,10.492
			c-11.963-4.225-16.673-19.036-13.125-30.466c3.525-11.891,15.693-19.73,27.764-20.339c7.78-0.732,15.345,1.572,22.604,4.053
			c42.949,12.064,85.501,25.501,127.891,39.388c18.874,5.846,37.721,11.93,56.976,16.409c20.768,2.9,43.408-12.868,45.052-34.365
			c1.855-15.602-8.91-32.09-24.538-35.306c-9.938-1.927-21.208,1.94-26.572,10.846c-5.075,7.318-4.447,18.174,2.272,24.271
			c5.02,4.701,14.733,5.459,18.493-1.188c3.838-3.613-0.309-12.516-4.137-11.182c-0.99,5.329-8.737,10.013-10.306,2.373
			c-2.845-8.096,5.033-15.566,12.624-16.488c10.531-1.449,20.397,7.142,22.396,17.227c2.549,10.228-1.24,21.826-9.951,27.975
			c-10.784,8.861-26.282,8.171-38.698,3.477c-28.376-8.675-56.664-17.692-84.912-26.784c-27.773-8.945-55.703-17.412-83.818-25.215
			c-12.106-3.88-25.798-7.409-38.001-1.934C440.449,707.207,429.082,723.675,430.905,740.443z"/>
	</g>
</g>
</svg>
